<?xml version="1.0" encoding="UTF-8"?>
<svg version="1.1" xmlns="http://www.w3.org/2000/svg" width="512" height="512">
<path d="M0 0 C168.96 0 337.92 0 512 0 C512 168.96 512 337.92 512 512 C343.04 512 174.08 512 0 512 C0 343.04 0 174.08 0 0 Z " fill="#000000" transform="translate(0,0)"/>
<path d="M0 0 C2.75 1.72265625 2.75 1.72265625 5 4.0625 C5.763125 4.81660156 6.52625 5.57070313 7.3125 6.34765625 C9.57751216 9.90771008 9.51400012 11.82363179 9 16 C7.17038145 18.48124981 5.52712841 20.35339876 3.32788086 22.45092773 C2.72464996 23.05357452 2.12141907 23.65622131 1.49990845 24.27713013 C-0.49579031 26.26286644 -2.51501688 28.22275293 -4.53515625 30.18359375 C-5.93245967 31.56528619 -7.32814314 32.94861864 -8.72227478 34.33351135 C-12.39859279 37.97744693 -16.09496659 41.60033746 -19.79638672 45.21875 C-24.26964085 49.59851013 -28.72055349 54.00094423 -33.17320156 58.40163517 C-36.64285334 61.83038279 -40.11609652 65.2551696 -43.60157776 68.66783142 C-51.95377975 76.83651999 -51.95377975 76.83651999 -59.72703552 85.55189514 C-61.61478184 87.69936639 -63.33200093 88.97384651 -66 90 C-70.96471705 89.67991536 -73.37038324 88.35601664 -76.875 84.875 C-77.65617188 84.12992187 -78.43734375 83.38484375 -79.2421875 82.6171875 C-81.64182731 79.04439045 -81.58317121 77.26098772 -81 73 C-79.1733947 70.13891747 -76.84120615 67.87415844 -74.42578125 65.50415039 C-73.72662094 64.79111755 -73.02746063 64.07808472 -72.30711365 63.34344482 C-69.99302521 60.99347537 -67.65416965 58.6701199 -65.3125 56.34765625 C-63.69403214 54.72193289 -62.07653218 53.09524542 -60.45996094 51.46763611 C-57.06823673 48.06108005 -53.66391705 44.66776183 -50.25048828 41.28295898 C-45.87786606 36.94460991 -41.53993789 32.57335948 -37.21110535 28.19136906 C-33.87787038 24.82532545 -30.52600223 21.47834282 -27.16830444 18.13671684 C-25.56113249 16.53236529 -23.96001687 14.9219229 -22.36514282 13.30534554 C-20.13195484 11.04710482 -17.87472001 8.81600653 -15.609375 6.59008789 C-14.95553329 5.91848129 -14.30169159 5.24687469 -13.6280365 4.55491638 C-9.04594491 0.12755761 -6.37212076 -0.8956586 0 0 Z " fill="#FBFBFB" transform="translate(236,317)"/>
<path d="M0 0 C2.75 1.72265625 2.75 1.72265625 5 4.0625 C5.763125 4.81660156 6.52625 5.57070312 7.3125 6.34765625 C9.59235561 9.93104041 9.55163528 11.79308966 9 16 C7.283585 18.701894 5.07738508 20.7985359 2.77368164 23.00512695 C2.11204514 23.66617935 1.45040863 24.32723175 0.76872253 25.00831604 C-1.41810171 27.18518077 -3.62853597 29.33631588 -5.83984375 31.48828125 C-7.36361734 32.99645497 -8.88577796 34.50625994 -10.40638733 36.0176239 C-14.41049115 39.98935453 -18.43472028 43.94005104 -22.46392822 47.8862915 C-27.36301658 52.69157345 -32.23928548 57.51998679 -37.11775303 62.34618664 C-40.91182961 66.099082 -44.70961158 69.84795147 -48.51902771 73.58528137 C-49.56594788 74.61484451 -49.56594788 74.61484451 -50.63401794 75.66520691 C-51.94072295 76.95005167 -53.24935102 78.2329446 -54.56021118 79.5135498 C-57.66450492 82.4611584 -57.66450492 82.4611584 -60 86 C-60.66 86 -61.32 86 -62 86 C-62 86.66 -62 87.32 -62 88 C-65.16234836 89.87398422 -67.33596641 90.47398109 -71 90 C-73.67578125 88.05859375 -73.67578125 88.05859375 -76.3125 85.4375 C-77.19550781 84.59058594 -78.07851563 83.74367188 -78.98828125 82.87109375 C-81.60629304 79.13470799 -81.63821733 77.5064118 -81 73 C-79.17147496 70.13995323 -76.84137272 67.87432188 -74.42578125 65.50415039 C-73.72662094 64.79111755 -73.02746063 64.07808472 -72.30711365 63.34344482 C-69.99302521 60.99347537 -67.65416965 58.6701199 -65.3125 56.34765625 C-63.69403214 54.72193289 -62.07653218 53.09524542 -60.45996094 51.46763611 C-57.06823673 48.06108005 -53.66391705 44.66776183 -50.25048828 41.28295898 C-45.87786606 36.94460991 -41.53993789 32.57335948 -37.21110535 28.19136906 C-33.87787038 24.82532545 -30.52600223 21.47834282 -27.16830444 18.13671684 C-25.56113249 16.53236529 -23.96001687 14.9219229 -22.36514282 13.30534554 C-20.13195484 11.04710482 -17.87472001 8.81600653 -15.609375 6.59008789 C-14.95553329 5.91848129 -14.30169159 5.24687469 -13.6280365 4.55491638 C-9.04594491 0.12755761 -6.37212076 -0.8956586 0 0 Z " fill="#FBFBFB" transform="translate(348,205)"/>
<path d="M0 0 C5.53828648 0.16491781 8.26172362 3.32824988 11.95996094 7.12696838 C12.6731398 7.82773499 13.38631866 8.52850159 14.12110901 9.25050354 C16.46797278 11.56730748 18.78453059 13.91196412 21.10058594 16.25953674 C22.72458887 17.88068974 24.34985185 19.50058136 25.97631836 21.1192627 C29.378254 24.51392034 32.7655712 27.92235315 36.14306641 31.34132385 C40.4735017 35.72295451 44.8366429 40.07020515 49.21102905 44.40790653 C52.57135531 47.74682547 55.91459049 51.10244255 59.25280762 54.46345329 C60.85538093 56.07321084 62.463036 57.67792574 64.07580566 59.27746773 C66.32682251 61.51541584 68.55405493 63.77462418 70.77636719 66.04103088 C71.44640274 66.69846786 72.11643829 67.35590485 72.80677795 68.03326416 C75.90816299 71.24366293 77.23999864 72.77568993 77.89819336 77.30615234 C76.99557647 82.63133545 73.65386461 85.26701922 69.91308594 88.91188049 C66.5940475 91.01663658 65.2446739 91.14940257 61.35058594 90.53688049 C58.54040118 88.62923039 56.25058544 86.25625933 53.87646484 83.83912659 C53.15382446 83.12700012 52.43118408 82.41487366 51.68664551 81.6811676 C49.30149306 79.32242853 46.93896479 76.94240688 44.57714844 74.56031799 C42.92750287 72.91471354 41.27696745 71.27000068 39.62557983 69.62614441 C36.16778123 66.17719429 32.72107466 62.71761765 29.28173828 59.2502594 C24.86994116 54.80427807 20.43175663 50.38577488 15.98491859 45.9748745 C12.5717486 42.58337495 9.17298584 39.17772722 5.77842331 35.76761246 C4.14732806 34.13251173 2.51175576 32.50186463 0.87169266 30.87575912 C-1.41758678 28.60170045 -3.68677667 26.30932407 -5.95166016 24.01100159 C-6.63418854 23.34061859 -7.31671692 22.6702356 -8.01992798 21.97953796 C-12.52462659 17.35070634 -12.52462659 17.35070634 -13.15933228 13.21134949 C-12.544747 9.98791245 -11.53908717 8.63474567 -9.27441406 6.28688049 C-8.64792969 5.62172424 -8.02144531 4.95656799 -7.37597656 4.27125549 C-3.65996883 0.53843325 -3.65996883 0.53843325 0 0 Z " fill="#FCFCFC" transform="translate(167.6494140625,204.46311950683594)"/>
<path d="M0 0 C5.53828648 0.16491781 8.26172362 3.32824988 11.95996094 7.12696838 C12.6731398 7.82773499 13.38631866 8.52850159 14.12110901 9.25050354 C16.46797278 11.56730748 18.78453059 13.91196412 21.10058594 16.25953674 C22.72458887 17.88068974 24.34985185 19.50058136 25.97631836 21.1192627 C29.378254 24.51392034 32.7655712 27.92235315 36.14306641 31.34132385 C40.4735017 35.72295451 44.8366429 40.07020515 49.21102905 44.40790653 C52.57135531 47.74682547 55.91459049 51.10244255 59.25280762 54.46345329 C60.85538093 56.07321084 62.463036 57.67792574 64.07580566 59.27746773 C66.32682251 61.51541584 68.55405493 63.77462418 70.77636719 66.04103088 C71.44640274 66.69846786 72.11643829 67.35590485 72.80677795 68.03326416 C75.92502757 71.2611203 77.24192945 72.78200429 77.89819336 77.34130859 C77.17574618 81.55716069 75.58236509 82.80782254 72.35058594 85.53688049 C71.54621094 86.46500549 70.74183594 87.39313049 69.91308594 88.34938049 C67.35058594 90.53688049 67.35058594 90.53688049 64.65756226 91.09220886 C59.68579948 90.25731903 57.32942597 87.3546453 53.87646484 83.83912659 C53.15382446 83.12700012 52.43118408 82.41487366 51.68664551 81.6811676 C49.30149306 79.32242853 46.93896479 76.94240688 44.57714844 74.56031799 C42.92750287 72.91471354 41.27696745 71.27000068 39.62557983 69.62614441 C36.16778123 66.17719429 32.72107466 62.71761765 29.28173828 59.2502594 C24.86994116 54.80427807 20.43175663 50.38577488 15.98491859 45.9748745 C12.5717486 42.58337495 9.17298584 39.17772722 5.77842331 35.76761246 C4.14732806 34.13251173 2.51175576 32.50186463 0.87169266 30.87575912 C-1.41758678 28.60170045 -3.68677667 26.30932407 -5.95166016 24.01100159 C-6.63418854 23.34061859 -7.31671692 22.6702356 -8.01992798 21.97953796 C-12.52462659 17.35070634 -12.52462659 17.35070634 -13.15933228 13.21134949 C-12.544747 9.98791245 -11.53908717 8.63474567 -9.27441406 6.28688049 C-8.64792969 5.62172424 -8.02144531 4.95656799 -7.37597656 4.27125549 C-3.65996883 0.53843325 -3.65996883 0.53843325 0 0 Z " fill="#FBFBFB" transform="translate(279.6494140625,92.46311950683594)"/>
<path d="M0 0 C2.75 1.72265625 2.75 1.72265625 5 4.0625 C5.763125 4.81660156 6.52625 5.57070312 7.3125 6.34765625 C9.60684165 9.95380898 9.58312739 11.76243671 9 16 C7.13415494 18.89435943 4.75799917 21.18852868 2.30224609 23.58764648 C1.59011963 24.31043289 0.87799316 25.0332193 0.14428711 25.77790833 C-2.2121865 28.16007384 -4.59320104 30.5158524 -6.9765625 32.87109375 C-8.62238478 34.51909181 -10.2670946 36.16820154 -11.91073608 37.81837463 C-15.35825469 41.27170009 -18.817856 44.71230722 -22.28662109 48.14428711 C-26.73433237 52.54650349 -31.15237868 56.97715353 -35.562006 61.41747952 C-38.95331117 64.82657056 -42.35897394 68.22101506 -45.76926804 71.61110115 C-47.40422776 73.23953921 -49.03487436 74.87231943 -50.66112137 76.50945854 C-52.93510296 78.79395744 -55.22745709 81.05824281 -57.52587891 83.31811523 C-58.1962619 83.99907257 -58.8666449 84.68002991 -59.55734253 85.38162231 C-64.17448898 89.86437285 -64.17448898 89.86437285 -68.29379272 90.54115295 C-72.06240493 89.78755376 -73.70134801 88.0968259 -76.375 85.375 C-77.24898437 84.51648438 -78.12296875 83.65796875 -79.0234375 82.7734375 C-81 80 -81 80 -81.7265625 77.1640625 C-78.52752272 63.23276023 -55.56774335 47.13075026 -45.71313477 37.19824219 C-42.60384063 34.0620656 -39.50595915 30.91522529 -36.41723633 27.75878906 C-32.67259475 23.93230962 -28.9087787 20.12572552 -25.13046074 16.33250427 C-23.69824696 14.8880447 -22.27293593 13.43670627 -20.85481453 11.97840881 C-18.87341545 9.94365139 -16.86833652 7.9354519 -14.85571289 5.93164062 C-14.27832367 5.32706024 -13.70093445 4.72247986 -13.10604858 4.09957886 C-8.75972646 -0.14951653 -6.05077014 -0.77326892 0 0 Z " fill="#FBFBFB" transform="translate(236,93)"/>
<path d="M0 0 C2.9450838 1.79337881 5.21283806 4.12843699 7.609375 6.59008789 C8.32255386 7.29085449 9.03573273 7.99162109 9.77052307 8.71362305 C12.11738684 11.03042699 14.43394465 13.37508363 16.75 15.72265625 C18.37400293 17.34380924 19.99926592 18.96370087 21.62573242 20.5823822 C25.02766806 23.97703985 28.41498526 27.38547265 31.79248047 30.80444336 C36.12291577 35.18607402 40.48605696 39.53332466 44.86044312 43.87102604 C48.22076937 47.20994498 51.56400455 50.56556206 54.90222168 53.9265728 C56.50479499 55.53633035 58.11245006 57.14104525 59.72521973 58.74058723 C61.97623657 60.97853534 64.20346899 63.23774368 66.42578125 65.50415039 C67.0958168 66.16158737 67.76585236 66.81902435 68.45619202 67.49638367 C71.58013211 70.7301303 72.89470934 72.23068527 73.52075195 76.80491638 C72.88009686 80.73566805 71.73588409 82.14630197 68.875 84.875 C68.10929687 85.63554687 67.34359375 86.39609375 66.5546875 87.1796875 C63.3850263 89.43819227 61.92244408 90.2397582 58 90 C56.18611145 88.68993378 56.18611145 88.68993378 54.24145508 86.91491699 C53.53639832 86.2741774 52.83134155 85.63343781 52.10491943 84.97328186 C49.01250665 82.07426257 45.95730647 79.14456865 42.94140625 76.16601562 C42.28674881 75.52274826 41.63209137 74.8794809 40.95759583 74.21672058 C34.20760491 67.57620692 27.48793205 60.90487738 20.77099609 54.23095703 C17.58518413 51.06754065 14.38986893 47.91420412 11.18603516 44.76904297 C7.30342593 40.95736396 3.43814293 37.12890718 -0.41531372 33.2877655 C-1.88297987 31.83050783 -3.35665443 30.37927551 -4.83639526 28.9342804 C-6.89982175 26.91689204 -8.94023214 24.8786696 -10.9765625 22.83398438 C-11.59049362 22.24364914 -12.20442474 21.6533139 -12.83695984 21.04508972 C-15.84800684 17.97369053 -16.91763372 16.64284503 -17.48193359 12.23864746 C-16.89488652 8.2936257 -15.81719145 6.84638006 -13 4.0625 C-12.2575 3.29035156 -11.515 2.51820313 -10.75 1.72265625 C-7.14253085 -0.53713622 -4.09772946 -0.87980103 0 0 Z " fill="#FBFBFB" transform="translate(284,317)"/>
<path d="M0 0 C5.51993758 0.16420331 8.18883909 3.30235752 11.8455658 7.11373901 C12.5473848 7.81278351 13.2492038 8.511828 13.97229004 9.23205566 C16.28111568 11.54135529 18.56023003 13.8777826 20.83995056 16.21578979 C22.43869846 17.82692553 24.03915213 19.43637026 25.64123535 21.04418945 C29.84937879 25.27718054 34.03252426 29.53408098 38.21134949 33.79598999 C41.63377996 37.27848592 45.07299234 40.74413325 48.51331997 44.20893669 C55.60899311 51.35521972 62.69366734 58.51247924 69.74790955 65.69967651 C70.40499908 66.36573914 71.06208862 67.03180176 71.73908997 67.7180481 C72.33472244 68.32661652 72.93035492 68.93518494 73.54403687 69.56219482 C74.06367728 70.091304 74.5833177 70.62041317 75.1187048 71.16555595 C76.99352537 73.26286996 77.34309701 74.52932035 77.66026306 77.36032104 C77.26210651 81.35663309 76.11987009 82.56695405 73.28135681 85.34860229 C72.52725525 86.11817261 71.77315369 86.88774292 70.99620056 87.68063354 C67.52870659 90.10634729 65.59357983 90.56676747 61.34385681 90.53610229 C58.38847403 88.77983852 56.14171366 86.40655347 53.75621033 83.95187378 C53.03342392 83.23989334 52.31063751 82.5279129 51.56594849 81.7943573 C49.1812938 79.43472456 46.82688725 77.04726005 44.47276306 74.65719604 C42.82498378 73.00972663 41.17587101 71.36358997 39.52548218 69.71873474 C36.07064553 66.26666818 32.63018502 62.80105504 29.1995697 59.32492065 C24.79904141 54.86762186 20.36808083 50.44213404 15.9263773 46.02590847 C12.5170727 42.63050729 9.12265736 39.22053609 5.73275566 35.80577278 C4.10418402 34.1681622 2.47140332 32.53472649 0.83439827 30.90554619 C-1.45021866 28.62674392 -3.71449732 26.32950984 -5.97425842 24.02609253 C-6.65521576 23.35413849 -7.3361731 22.68218445 -8.0377655 21.98986816 C-12.53150145 17.35080477 -12.53150145 17.35080477 -13.16506958 13.20957947 C-12.55148653 9.98632301 -11.54555211 8.63369358 -9.28114319 6.28610229 C-8.65465881 5.62094604 -8.02817444 4.95578979 -7.38270569 4.27047729 C-3.66669201 0.53764907 -3.66669201 0.53764907 0 0 Z " fill="#FBFBFB" transform="translate(391.65614318847656,204.46389770507813)"/>
<path d="M0 0 C2.75 1.72265625 2.75 1.72265625 5 4.0625 C5.763125 4.81660156 6.52625 5.57070312 7.3125 6.34765625 C9.60675588 9.95367417 9.58187528 11.76241492 9 16 C7.13929398 18.89798417 4.76850741 21.19845881 2.31811523 23.60351562 C1.60759506 24.32790833 0.89707489 25.05230103 0.1650238 25.79864502 C-2.18633274 28.1858813 -4.56246876 30.54652049 -6.94140625 32.90625 C-8.58469034 34.55678882 -10.22700636 36.20829197 -11.86839294 37.86071777 C-15.31139049 41.31854632 -18.76698746 44.76314257 -22.23168945 48.19921875 C-26.67392046 52.60714956 -31.08143256 57.04803684 -35.47987461 61.4996109 C-38.86369699 64.91620901 -42.26611705 68.31378728 -45.67439079 71.70597839 C-47.30751057 73.33627451 -48.93455784 74.97267695 -50.55539131 76.6151886 C-52.82233235 78.90712844 -55.11325424 81.17202331 -57.41235352 83.43164062 C-58.07914124 84.11619324 -58.74592896 84.80074585 -59.43292236 85.50604248 C-64.07948664 89.99744374 -64.07948664 89.99744374 -68.82432556 90.01062012 C-73.9680923 88.37367834 -76.81851225 85.2572426 -80 81 C-81.4375 77.5 -81.4375 77.5 -81 74 C-71.81016998 60.40415281 -57.23201671 48.8081795 -45.71313477 37.19824219 C-42.60384063 34.0620656 -39.50595915 30.91522529 -36.41723633 27.75878906 C-32.67259475 23.93230962 -28.9087787 20.12572552 -25.13046074 16.33250427 C-23.69824696 14.8880447 -22.27293593 13.43670627 -20.85481453 11.97840881 C-18.87341545 9.94365139 -16.86833652 7.9354519 -14.85571289 5.93164062 C-14.27832367 5.32706024 -13.70093445 4.72247986 -13.10604858 4.09957886 C-8.75972646 -0.14951653 -6.05077014 -0.77326892 0 0 Z " fill="#FDFDFD" transform="translate(124,205)"/>
<path d="M0 0 C-1.10392098 3.31176294 -1.87153612 3.96781212 -4.49145508 6.12255859 C-9.28697378 10.19444286 -13.70463451 14.57824418 -18.13671875 19.0390625 C-18.97918655 19.88294525 -19.82165436 20.726828 -20.68965149 21.59628296 C-23.35797903 24.27016272 -26.02279732 26.94750829 -28.6875 29.625 C-30.48739721 31.42991988 -32.28752532 33.23460954 -34.08789062 35.0390625 C-38.094823 39.0558766 -42.10010588 43.07431935 -46.10140991 47.09674072 C-47.70404751 48.70331968 -49.31512708 50.30069254 -50.92895508 51.89599609 C-53.05953902 53.97525855 -53.05953902 53.97525855 -54.875 56.4375 C-57.1295004 59.15616224 -59.54857792 61.26525926 -62.26171875 63.5078125 C-64.23920477 65.15597934 -64.23920477 65.15597934 -66.75 67.875 C-69 70 -69 70 -72 70 C-62.91353498 60.86728408 -53.82174211 51.73990988 -44.72302437 42.61940002 C-40.49872685 38.38464573 -36.2763178 34.148043 -32.05810547 29.90722656 C-27.99058448 25.81804466 -23.9182596 21.73370526 -19.84249496 17.65274048 C-18.28495481 16.0914924 -16.72918187 14.52847932 -15.17517471 12.9637146 C-13.005651 10.77976577 -10.83004371 8.602062 -8.65283203 6.42578125 C-8.00547089 5.77122955 -7.35810974 5.11667786 -6.69113159 4.44229126 C-2.22810432 0 -2.22810432 0 0 0 Z " fill="#E0E0E0" transform="translate(118,205)"/>
<path d="M0 0 C-1.15093722 3.45281166 -2.3205993 4.38082163 -5.0625 6.6875 C-5.79597656 7.31011719 -6.52945313 7.93273437 -7.28515625 8.57421875 C-7.85105469 9.04472656 -8.41695312 9.51523438 -9 10 C-9 7 -9 7 -7.5390625 5.17578125 C-6.90742188 4.56089844 -6.27578125 3.94601563 -5.625 3.3125 C-4.68527344 2.37857422 -4.68527344 2.37857422 -3.7265625 1.42578125 C-2 0 -2 0 0 0 Z " fill="#E5E5E5" transform="translate(166,205)"/>
<path d="M0 0 C0.99 0 1.98 0 3 0 C3 0.66 3 1.32 3 2 C3.66 2 4.32 2 5 2 C4.34 3.32 3.68 4.64 3 6 C1.68 4.35 0.36 2.7 -1 1 C-0.67 0.67 -0.34 0.34 0 0 Z " fill="#0C0C0C" transform="translate(410,217)"/>
</svg>
